<svg width="25" height="25" viewBox="0 0 25 25" fill="none" xmlns="http://www.w3.org/2000/svg">
<g clip-path="url(#clip0_359_1220)">
<path d="M24.6511 12.499C24.6511 5.87165 19.2784 0.499023 12.6511 0.499023C6.02369 0.499023 0.651062 5.87165 0.651062 12.499C0.651062 18.4885 5.03931 23.4531 10.7761 24.3532V15.9678H7.72919V12.499H10.7761V9.85527C10.7761 6.84777 12.5676 5.18652 15.3087 5.18652C16.6216 5.18652 17.9948 5.4209 17.9948 5.4209V8.37402H16.4817C14.991 8.37402 14.5261 9.29905 14.5261 10.2481V12.499H17.8542L17.3222 15.9678H14.5261V24.3532C20.2628 23.4531 24.6511 18.4886 24.6511 12.499Z" fill="#1877F2"/>
<path d="M17.3222 15.9678L17.8542 12.499H14.5261V10.2481C14.5261 9.29896 14.991 8.37402 16.4817 8.37402H17.9948V5.4209C17.9948 5.4209 16.6216 5.18652 15.3086 5.18652C12.5676 5.18652 10.7761 6.84777 10.7761 9.85527V12.499H7.72919V15.9678H10.7761V24.3532C11.3963 24.4504 12.0232 24.4992 12.6511 24.499C13.2789 24.4992 13.9058 24.4505 14.5261 24.3532V15.9678H17.3222Z" fill="white"/>
</g>
<defs>
<clipPath id="clip0_359_1220">
<rect width="24" height="24" fill="white" transform="translate(0.651062 0.499023)"/>
</clipPath>
</defs>
</svg>
