<svg width="25" height="25" viewBox="0 0 25 25" fill="none" xmlns="http://www.w3.org/2000/svg">
<g clip-path="url(#clip0_402_1133)">
<path d="M19.0261 0.499023H6.27606C3.16946 0.499023 0.651062 3.01742 0.651062 6.12402V18.874C0.651062 21.9806 3.16946 24.499 6.27606 24.499H19.0261C22.1327 24.499 24.6511 21.9806 24.6511 18.874V6.12402C24.6511 3.01742 22.1327 0.499023 19.0261 0.499023Z" fill="url(#paint0_radial_402_1133)"/>
<path d="M19.0261 0.499023H6.27606C3.16946 0.499023 0.651062 3.01742 0.651062 6.12402V18.874C0.651062 21.9806 3.16946 24.499 6.27606 24.499H19.0261C22.1327 24.499 24.6511 21.9806 24.6511 18.874V6.12402C24.6511 3.01742 22.1327 0.499023 19.0261 0.499023Z" fill="url(#paint1_radial_402_1133)"/>
<path d="M12.6519 3.12402C10.1058 3.12402 9.78625 3.13518 8.78631 3.18065C7.78825 3.2264 7.10697 3.38437 6.51091 3.61621C5.89422 3.85565 5.37119 4.17599 4.85012 4.69724C4.32859 5.2184 4.00825 5.74143 3.76806 6.35784C3.53556 6.95409 3.37741 7.63565 3.3325 8.63324C3.28778 9.63327 3.27606 9.95296 3.27606 12.4991C3.27606 15.0453 3.28731 15.3638 3.33269 16.3638C3.37862 17.3618 3.53659 18.0431 3.76825 18.6392C4.00787 19.2559 4.32822 19.7789 4.84947 20.3C5.37044 20.8215 5.89347 21.1426 6.50969 21.382C7.10622 21.6139 7.78759 21.7718 8.78547 21.8176C9.7855 21.8631 10.1048 21.8742 12.6508 21.8742C15.1971 21.8742 15.5157 21.8631 16.5156 21.8176C17.5137 21.7718 18.1957 21.6139 18.7922 21.382C19.4087 21.1426 19.9309 20.8215 20.4518 20.3C20.9733 19.7789 21.2936 19.2559 21.5339 18.6395C21.7643 18.0431 21.9226 17.3616 21.9694 16.364C22.0143 15.364 22.0261 15.0453 22.0261 12.4991C22.0261 9.95296 22.0143 9.63346 21.9694 8.63343C21.9226 7.63537 21.7643 6.95418 21.5339 6.35812C21.2936 5.74143 20.9733 5.2184 20.4518 4.69724C19.9304 4.1758 19.4088 3.85546 18.7917 3.6163C18.194 3.38437 17.5124 3.2263 16.5143 3.18065C15.5143 3.13518 15.1959 3.12402 12.649 3.12402H12.6519ZM11.8109 4.81349C12.0605 4.81312 12.3391 4.81349 12.6519 4.81349C15.1551 4.81349 15.4517 4.82249 16.4402 4.8674C17.3543 4.90921 17.8504 5.06193 18.1809 5.19027C18.6184 5.36015 18.9303 5.5633 19.2583 5.89152C19.5864 6.21965 19.7895 6.53212 19.9598 6.96965C20.0882 7.29965 20.2411 7.79577 20.2827 8.70984C20.3276 9.69815 20.3373 9.99496 20.3373 12.497C20.3373 14.999 20.3276 15.2959 20.2827 16.2841C20.2409 17.1981 20.0882 17.6943 19.9598 18.0244C19.7899 18.4619 19.5864 18.7734 19.2583 19.1014C18.9302 19.4295 18.6186 19.6326 18.1809 19.8025C17.8508 19.9314 17.3543 20.0838 16.4402 20.1256C15.4519 20.1705 15.1551 20.1802 12.6519 20.1802C10.1486 20.1802 9.85187 20.1705 8.86366 20.1256C7.94959 20.0834 7.45347 19.9307 7.12272 19.8023C6.68528 19.6324 6.37272 19.4293 6.04459 19.1012C5.71647 18.7731 5.51341 18.4613 5.34306 18.0236C5.21472 17.6935 5.06181 17.1974 5.02019 16.2833C4.97528 15.295 4.96628 14.9982 4.96628 12.4946C4.96628 9.99112 4.97528 9.6958 5.02019 8.70749C5.062 7.79343 5.21472 7.2973 5.34306 6.96684C5.51303 6.5293 5.71647 6.21684 6.04469 5.88871C6.37281 5.56059 6.68528 5.35743 7.12281 5.18718C7.45328 5.05827 7.94959 4.90593 8.86366 4.86393C9.7285 4.82484 10.0637 4.81312 11.8109 4.81115V4.81349ZM17.6563 6.37012C17.0352 6.37012 16.5313 6.87355 16.5313 7.49474C16.5313 8.11584 17.0352 8.61974 17.6563 8.61974C18.2774 8.61974 18.7813 8.11584 18.7813 7.49474C18.7813 6.87365 18.2774 6.36974 17.6563 6.36974V6.37012ZM12.6519 7.68459C9.99316 7.68459 7.83747 9.84027 7.83747 12.4991C7.83747 15.158 9.99316 17.3126 12.6519 17.3126C15.3108 17.3126 17.4657 15.158 17.4657 12.4991C17.4657 9.84037 15.3106 7.68459 12.6517 7.68459H12.6519ZM12.6519 9.37405C14.3777 9.37405 15.777 10.7731 15.777 12.4991C15.777 14.225 14.3777 15.6242 12.6519 15.6242C10.926 15.6242 9.52694 14.225 9.52694 12.4991C9.52694 10.7731 10.926 9.37405 12.6519 9.37405Z" fill="white"/>
</g>
<defs>
<radialGradient id="paint0_radial_402_1133" cx="0" cy="0" r="1" gradientUnits="userSpaceOnUse" gradientTransform="translate(7.02606 26.3475) rotate(-90) scale(23.7858 22.1227)">
<stop stop-color="#FFDD55"/>
<stop offset="0.1" stop-color="#FFDD55"/>
<stop offset="0.5" stop-color="#FF543E"/>
<stop offset="1" stop-color="#C837AB"/>
</radialGradient>
<radialGradient id="paint1_radial_402_1133" cx="0" cy="0" r="1" gradientUnits="userSpaceOnUse" gradientTransform="translate(-3.36903 2.22787) rotate(78.681) scale(10.6324 43.827)">
<stop stop-color="#3771C8"/>
<stop offset="0.128" stop-color="#3771C8"/>
<stop offset="1" stop-color="#6600FF" stop-opacity="0"/>
</radialGradient>
<clipPath id="clip0_402_1133">
<rect width="24" height="24" fill="white" transform="translate(0.651062 0.499023)"/>
</clipPath>
</defs>
</svg>
