<svg width="25" height="17" viewBox="0 0 25 17" fill="none" xmlns="http://www.w3.org/2000/svg">
<g clip-path="url(#clip0_402_1150)">
<path d="M24.121 2.69355C23.9834 2.18483 23.7148 1.72103 23.3422 1.34836C22.9695 0.975691 22.5057 0.707143 21.997 0.569461C20.1346 0.0615234 12.6389 0.0615234 12.6389 0.0615234C12.6389 0.0615234 5.14283 0.0768984 3.28039 0.584836C2.77166 0.722526 2.30787 0.991088 1.93521 1.36378C1.56256 1.73647 1.29404 2.20028 1.15639 2.70902C0.593049 6.01821 0.374518 11.0606 1.17186 14.2375C1.30952 14.7462 1.57805 15.21 1.9507 15.5827C2.32336 15.9553 2.78714 16.2239 3.29586 16.3616C5.1583 16.8695 12.6542 16.8695 12.6542 16.8695C12.6542 16.8695 20.15 16.8695 22.0123 16.3616C22.521 16.2239 22.9848 15.9553 23.3575 15.5827C23.7302 15.21 23.9987 14.7462 24.1364 14.2375C24.7306 10.9236 24.9137 5.88424 24.121 2.69355Z" fill="#FF0000"/>
<path d="M10.253 12.0671L16.4713 8.46546L10.253 4.86377V12.0671Z" fill="white"/>
</g>
<defs>
<clipPath id="clip0_402_1150">
<rect width="24" height="16.875" fill="white" transform="translate(0.651062 0.0615234)"/>
</clipPath>
</defs>
</svg>
